<svg width="15" height="14" viewBox="0 0 15 14" fill="none" xmlns="http://www.w3.org/2000/svg">
<path d="M7.67272 3.49106L1 10.1637V13.5H4.33636L11.0091 6.82736M7.67272 3.49106L10.0654 1.09837L10.0669 1.09695C10.3962 0.767585 10.5612 0.602613 10.7514 0.540824C10.9189 0.486392 11.0993 0.486392 11.2669 0.540824C11.4569 0.602571 11.6217 0.767352 11.9506 1.09625L13.4018 2.54738C13.7321 2.87769 13.8973 3.04292 13.9592 3.23337C14.0136 3.40088 14.0136 3.58133 13.9592 3.74885C13.8974 3.93916 13.7324 4.10414 13.4025 4.43398L13.4018 4.43468L11.0091 6.82736M7.67272 3.49106L11.0091 6.82736" stroke="#6C63FF" stroke-linecap="round" stroke-linejoin="round"/>
</svg>
